<svg width="180" height="33" viewBox="0 0 180 33" fill="none" xmlns="http://www.w3.org/2000/svg">
<path d="M40.419 0.423327C40.2955 0.652629 38.9638 2.96329 37.4733 5.55618C35.9741 8.14906 33.4429 12.5499 31.8378 15.328C30.2415 18.1061 28.901 20.3727 28.8657 20.355C28.8304 20.3374 27.4458 18.8381 25.7789 17.0213C20.6725 11.4475 20.2756 11.0242 20.2051 11.0418C20.1522 11.0683 17.965 14.5166 13.8993 20.99C13.2466 22.0307 12.6557 22.9391 12.6028 23.0008C12.5058 23.0978 12.2412 23.0008 11.1388 22.4893C10.398 22.1453 9.75418 21.8808 9.71891 21.8896C9.67481 21.9072 9.00454 22.5863 8.2108 23.4153C7.42588 24.2355 5.25632 26.5021 3.39544 28.4423L0 31.9701L35.877 31.9965C55.6147 32.0054 71.7717 31.9965 71.7982 31.9789C71.8158 31.9524 71.5336 31.5732 71.1808 31.1146C70.8192 30.6648 69.9461 29.5624 69.2494 28.6628C68.5439 27.7633 66.8153 25.5584 65.413 23.7681C64.0019 21.969 61.9558 19.3673 60.871 17.9738C59.7863 16.5892 58.8602 15.4515 58.8073 15.4603C58.7632 15.4691 58.0136 16.4481 57.1405 17.6387C56.2762 18.8293 55.5265 19.8435 55.4648 19.9052C55.3942 19.9758 53.5863 17.5769 48.0477 10.0099C44.0261 4.50668 40.71 0.00881808 40.6836 -1.25545e-06C40.6571 -1.25545e-06 40.5425 0.194024 40.419 0.423327ZM40.86 3.13086C40.9746 3.51891 41.6273 5.74138 42.324 8.06969C43.0207 10.3892 43.5675 12.3118 43.5499 12.3382C43.4881 12.3912 33.5928 14.5431 33.5576 14.5078C33.5399 14.4902 34.4924 12.7969 35.6742 10.7419C36.8648 8.69586 38.4435 5.95305 39.1843 4.65661C39.9339 3.35135 40.5689 2.31948 40.5954 2.36358C40.6307 2.39886 40.7453 2.74281 40.86 3.13086ZM51.1874 16.0512C52.5191 17.868 53.6392 19.4114 53.6745 19.4643C53.7186 19.526 53.2952 19.3673 52.7484 19.1115C52.2016 18.8469 51.2844 18.4236 50.7112 18.159L49.6705 17.6828L47.5803 15.4867C45.0315 12.8145 44.6611 12.4088 44.6523 12.3118C44.6523 12.2677 44.1231 10.4421 43.4705 8.25489C42.8179 6.0677 42.2534 4.1539 42.2181 4.0128C42.1652 3.76585 43.25 5.22986 51.1874 16.0512ZM22.4011 14.8782C23.3624 15.9365 24.6236 17.3123 25.2057 17.9473C27.5692 20.5138 28.1601 21.1664 28.1601 21.2546C28.1601 21.3516 22.4628 26.1934 22.3394 26.1934C22.3041 26.1934 21.4486 25.3203 20.452 24.2532C18.9704 22.6657 18.6441 22.2688 18.6793 22.1101C18.7058 22.0042 19.085 20.1875 19.5172 18.0796C20.4432 13.6259 20.5843 12.9644 20.6196 12.9644C20.6372 12.9644 21.431 13.8287 22.4011 14.8782ZM43.3029 13.6435C43.2853 13.7317 42.518 15.5661 41.6096 17.7269C40.7012 19.8876 39.7664 22.1012 39.5371 22.6569L39.1226 23.6623L38.7698 23.186C37.8349 21.9249 33.3635 15.672 33.3812 15.6543C33.4165 15.619 43.0736 13.5112 43.2324 13.5024C43.3029 13.4936 43.3294 13.5553 43.3029 13.6435ZM44.9169 14.1727C45.1197 14.4108 45.9752 15.3104 46.813 16.1835C47.6509 17.0566 48.4358 17.8944 48.5592 18.0444L48.7974 18.3178L48.621 19.235C48.5328 19.7377 48.1888 21.6162 47.8713 23.4153C47.545 25.2057 47.254 26.7049 47.2275 26.7314C46.6807 27.2429 42.324 30.5943 42.2711 30.5414C42.227 30.5061 41.6625 29.1744 41.0011 27.5957L39.8017 24.7294L41.9095 19.6936C44.5288 13.4583 44.3965 13.7582 44.4759 13.7582C44.5112 13.7582 44.714 13.9434 44.9169 14.1727ZM18.6793 17.0301C18.4059 18.3089 18.062 19.9493 17.9121 20.6813C17.771 21.4045 17.621 22.066 17.5858 22.1453C17.5152 22.3394 15.3633 24.6941 15.2927 24.6589C14.8341 24.4207 13.5906 23.6799 13.5553 23.627C13.5289 23.5829 14.3314 22.2512 15.3368 20.6637C16.3334 19.0674 17.5946 17.0654 18.1325 16.2099C18.6705 15.3545 19.1291 14.6577 19.138 14.6754C19.1556 14.6842 18.9439 15.7425 18.6793 17.0301ZM35.3214 20.1875C36.6708 22.0572 37.7556 23.6005 37.7291 23.6182C37.6762 23.6799 29.8358 21.0429 29.8358 20.9636C29.8358 20.9018 32.0054 17.083 32.3758 16.501L32.5081 16.2893L32.6933 16.5451C32.7903 16.6774 33.9809 18.3266 35.3214 20.1875ZM61.8941 20.9547C63.5433 23.0626 64.9632 24.8793 65.0426 24.9852L65.1925 25.188L62.8201 26.5726C61.506 27.3311 60.4124 27.9573 60.3772 27.9573C60.289 27.9573 56.091 21.087 56.091 20.9547C56.091 20.8489 58.7809 17.1095 58.8514 17.1183C58.8779 17.1183 60.2449 18.8469 61.8941 20.9547ZM52.4133 20.0993C53.4363 20.5755 54.283 21.0077 54.2918 21.0429C54.3006 21.1223 48.6033 25.6819 48.5592 25.629C48.5416 25.6113 48.7445 24.3766 49.0179 22.8773C49.2913 21.3781 49.547 19.9141 49.5999 19.623C49.644 19.332 49.7058 19.0498 49.7234 18.988C49.7675 18.8646 49.7587 18.8557 52.4133 20.0993ZM57.4403 25.2586C58.4722 26.9431 59.3188 28.3894 59.3277 28.46C59.3365 28.5482 58.6045 29.0244 57.308 29.7741L55.2796 30.9559H49.4324H43.5763L44.7581 30.021C46.425 28.6981 50.4907 25.4791 53.0659 23.433L55.2619 21.6867L55.4119 21.9337C55.5001 22.066 56.4085 23.5653 57.4403 25.2586ZM29.9152 23.7064C30.4708 24.5618 31.4762 26.1052 32.1377 27.1371L33.3459 29.0068L31.2381 29.9328C30.0739 30.4443 29.095 30.8677 29.0597 30.8677C28.9362 30.8677 23.2654 27.0048 23.2654 26.9254C23.2654 26.846 28.7775 22.1365 28.8657 22.1365C28.8921 22.1365 29.3684 22.8421 29.9152 23.7064ZM34.5541 23.724C36.8736 24.4913 38.8051 25.1616 38.8403 25.1968C38.9374 25.3027 41.1422 30.6119 41.1069 30.656C41.0893 30.6736 40.8776 30.6295 40.6395 30.5502C40.3925 30.4796 38.9285 30.0651 37.3763 29.6241C35.7536 29.1655 34.4924 28.7598 34.413 28.6805C34.3337 28.6011 33.4341 27.2429 32.4199 25.6643C31.4056 24.0856 30.5061 22.6921 30.4179 22.551C30.3297 22.4187 30.2768 22.3129 30.3032 22.3129C30.3209 22.3129 32.2435 22.9479 34.5541 23.724ZM20.0463 25.3379L21.9249 27.3488L24.5618 29.1303L27.2076 30.9118L23.1331 30.9382C20.893 30.947 17.2683 30.947 15.0722 30.9382L11.0771 30.9118L12.9732 28.8392C14.0139 27.7015 15.5838 25.9818 16.4569 25.0204C17.33 24.0591 18.0708 23.2919 18.1061 23.3007C18.1414 23.3183 19.0145 24.2355 20.0463 25.3379ZM11.0242 25.7172L12.2677 28.0631L10.9448 29.5095L9.62189 30.9559H6.05006C2.65462 30.9559 2.47823 30.947 2.59288 30.7971C2.65462 30.7177 3.17496 30.1709 3.73058 29.5889C5.8825 27.3664 9.08391 24.015 9.37495 23.6975C9.5337 23.5212 9.69245 23.3712 9.71891 23.3712C9.74536 23.3801 10.3363 24.4296 11.0242 25.7172ZM13.52 24.8441C14.0757 25.1704 14.5519 25.4438 14.5695 25.4526C14.6048 25.4879 14.2609 25.8936 13.5112 26.6961L13.0085 27.2429L12.0737 25.4967C11.5621 24.5266 11.1388 23.724 11.1388 23.6887C11.1388 23.6005 12.4882 24.2532 13.52 24.8441ZM67.7854 28.4864L69.6904 30.9118L66.6036 30.9382C64.9015 30.947 62.141 30.947 60.4742 30.9382L57.4315 30.9118L61.603 28.4688C63.8961 27.1283 65.801 26.0435 65.8275 26.0435C65.8628 26.0523 66.7447 27.1547 67.7854 28.4864ZM36.2298 30.3826L38.1701 30.947H34.8628C32.2876 30.947 31.6085 30.9206 31.7761 30.8412C33.046 30.2503 34.0514 29.8182 34.1573 29.8182C34.2278 29.8182 35.1627 30.0651 36.2298 30.3826Z" fill="black"/>
<path d="M100.156 32V19.112H82.48V32H80.752V6.26H82.48V17.564H100.156V6.26H101.884V32H100.156ZM110.941 32V8.636H112.597V32H110.941ZM135.426 8.636L125.454 19.904C129.39 24.68 132.078 27.704 133.518 28.976C134.982 30.248 136.434 30.968 137.874 31.136L137.838 32.252C136.494 32.228 135.402 32.036 134.562 31.676C133.722 31.292 132.978 30.788 132.33 30.164C131.682 29.54 130.29 28.016 128.154 25.592C126.042 23.144 124.458 21.272 123.402 19.976L133.446 8.636H135.426ZM122.898 8.636V32H121.242V8.636H122.898ZM141.633 32V8.636H152.541V10.076H143.289V18.572H151.641V19.976H143.289V30.488H152.901V32H141.633ZM159.527 32V8.744C161.591 8.576 163.343 8.492 164.783 8.492C166.991 8.492 168.815 9.068 170.255 10.22C171.695 11.348 172.415 12.968 172.415 15.08C172.415 16.496 172.007 17.804 171.191 19.004C170.375 20.204 169.451 21.176 168.419 21.92C171.275 25.712 173.039 27.98 173.711 28.724C175.079 30.14 176.567 30.944 178.175 31.136L178.139 32.252C176.795 32.228 175.703 32.036 174.863 31.676C174.023 31.292 173.183 30.656 172.343 29.768C171.527 28.88 169.715 26.492 166.907 22.604C164.963 22.604 163.055 22.544 161.183 22.424V32H159.527ZM166.007 21.236C166.943 21.236 167.951 20.612 169.031 19.364C170.111 18.116 170.651 16.664 170.651 15.008C170.651 13.352 170.087 12.092 168.959 11.228C167.831 10.364 166.367 9.932 164.567 9.932C163.607 9.932 162.479 9.98 161.183 10.076V21.056C162.911 21.176 164.519 21.236 166.007 21.236Z" fill="black"/>
</svg>
